<svg width="68" height="68" viewBox="0 0 68 68" fill="none" xmlns="http://www.w3.org/2000/svg">
<circle cx="34" cy="34" r="34" fill="#D9D9D9" fill-opacity="0.1"/>
<path d="M34.5 17.375V49.625" stroke="white" stroke-width="3" stroke-linecap="round" stroke-linejoin="round"/>
<path d="M41.9652 22.75H30.7673C29.3814 22.75 28.0522 23.3163 27.0722 24.3243C26.0922 25.3323 25.5416 26.6995 25.5416 28.125C25.5416 29.5505 26.0922 30.9177 27.0722 31.9257C28.0522 32.9337 29.3814 33.5 30.7673 33.5H38.2326C39.6185 33.5 40.9477 34.0663 41.9277 35.0743C42.9077 36.0823 43.4583 37.4495 43.4583 38.875C43.4583 40.3005 42.9077 41.6677 41.9277 42.6757C40.9477 43.6837 39.6185 44.25 38.2326 44.25H25.5416" stroke="white" stroke-width="3" stroke-linecap="round" stroke-linejoin="round"/>
</svg>
