<svg width="68" height="68" viewBox="0 0 68 68" fill="none" xmlns="http://www.w3.org/2000/svg">
<circle cx="34" cy="34" r="34" fill="#D9D9D9" fill-opacity="0.1"/>
<path d="M22.6666 19.6667L49.3333 46.3333" stroke="white" stroke-width="3" stroke-linecap="round" stroke-linejoin="round"/>
<path d="M41.8241 27.9475L38.9029 25.0264C39.5345 23.4185 39.9556 21.705 40.1326 19.9197C40.2374 18.863 41.0881 18 42.15 18H44.0727C48.3203 18 51.8622 21.4968 50.8143 25.6131C50.0884 28.4645 48.9642 31.1568 47.5044 33.6273M37.3152 34.3146C35.474 36.1557 33.3232 37.6872 30.9475 38.8241L28.0264 35.9029C26.4185 36.5345 24.705 36.9556 22.9197 37.1326C21.863 37.2374 21 38.0881 21 39.15V41.0727C21 45.3203 24.4968 48.8622 28.6131 47.8143C34.0499 46.4302 38.9083 43.5981 42.7534 39.7528" stroke="white" stroke-width="3" stroke-linecap="round" stroke-linejoin="round"/>
</svg>
