<svg width="68" height="68" viewBox="0 0 68 68" fill="none" xmlns="http://www.w3.org/2000/svg">
<circle cx="34" cy="34" r="34" fill="#D9D9D9" fill-opacity="0.1"/>
<path d="M32.4167 45.0833L48.25 45.0833" stroke="#F5F6F8" stroke-width="3" stroke-linecap="round" stroke-linejoin="round"/>
<path d="M19.75 45.0833H24.5" stroke="#F5F6F8" stroke-width="3" stroke-linecap="round" stroke-linejoin="round"/>
<path d="M28.4583 49.0417C30.6445 49.0417 32.4167 47.2695 32.4167 45.0833C32.4167 42.8972 30.6445 41.125 28.4583 41.125C26.2722 41.125 24.5 42.8972 24.5 45.0833C24.5 47.2695 26.2722 49.0417 28.4583 49.0417Z" stroke="#F5F6F8" stroke-width="3" stroke-linecap="round" stroke-linejoin="round"/>
<path d="M45.0833 34H48.25" stroke="#F5F6F8" stroke-width="3" stroke-linecap="round" stroke-linejoin="round"/>
<path d="M19.75 34H37.1667" stroke="#F5F6F8" stroke-width="3" stroke-linecap="round" stroke-linejoin="round"/>
<path d="M41.125 37.9583C43.3111 37.9583 45.0834 36.1861 45.0834 34C45.0834 31.8139 43.3111 30.0417 41.125 30.0417C38.9389 30.0417 37.1667 31.8139 37.1667 34C37.1667 36.1861 38.9389 37.9583 41.125 37.9583Z" stroke="#F5F6F8" stroke-width="3" stroke-linecap="round" stroke-linejoin="round"/>
<path d="M35.5833 22.9167H48.25" stroke="#F5F6F8" stroke-width="3" stroke-linecap="round" stroke-linejoin="round"/>
<path d="M19.75 22.9167H27.6667" stroke="#F5F6F8" stroke-width="3" stroke-linecap="round" stroke-linejoin="round"/>
<path d="M31.625 26.875C33.8111 26.875 35.5834 25.1028 35.5834 22.9167C35.5834 20.7305 33.8111 18.9583 31.625 18.9583C29.4389 18.9583 27.6667 20.7305 27.6667 22.9167C27.6667 25.1028 29.4389 26.875 31.625 26.875Z" stroke="#F5F6F8" stroke-width="3" stroke-linecap="round" stroke-linejoin="round"/>
</svg>
